<svg width="134" height="40" viewBox="0 0 134 40" fill="none" xmlns="http://www.w3.org/2000/svg">
<path d="M57.5674 22.5986C57.5674 22.3994 57.5381 22.2207 57.4795 22.0625C57.4209 21.8984 57.3125 21.7461 57.1543 21.6055C56.9961 21.4648 56.7676 21.3242 56.4688 21.1836C56.1758 21.0371 55.7891 20.8848 55.3086 20.7266C54.7461 20.5391 54.2041 20.3281 53.6826 20.0938C53.1611 19.8535 52.6953 19.5752 52.2852 19.2588C51.875 18.9365 51.5498 18.5615 51.3096 18.1338C51.0693 17.7002 50.9492 17.1963 50.9492 16.6221C50.9492 16.0713 51.0723 15.5762 51.3184 15.1367C51.5645 14.6914 51.9072 14.3135 52.3467 14.0029C52.792 13.6865 53.3135 13.4463 53.9111 13.2822C54.5088 13.1123 55.1621 13.0273 55.8711 13.0273C56.8086 13.0273 57.6348 13.1914 58.3496 13.5195C59.0703 13.8418 59.6328 14.3018 60.0371 14.8994C60.4473 15.4912 60.6523 16.1914 60.6523 17H57.585C57.585 16.6777 57.5176 16.3936 57.3828 16.1475C57.2539 15.9014 57.0576 15.708 56.7939 15.5674C56.5303 15.4268 56.1992 15.3564 55.8008 15.3564C55.4141 15.3564 55.0889 15.415 54.8252 15.5322C54.5615 15.6494 54.3623 15.8076 54.2275 16.0068C54.0928 16.2002 54.0254 16.4141 54.0254 16.6484C54.0254 16.8418 54.0781 17.0176 54.1836 17.1758C54.2949 17.3281 54.4502 17.4717 54.6494 17.6064C54.8545 17.7412 55.1006 17.8701 55.3877 17.9932C55.6807 18.1162 56.0088 18.2363 56.3721 18.3535C57.0518 18.5703 57.6553 18.8135 58.1826 19.083C58.7158 19.3467 59.1641 19.6484 59.5273 19.9883C59.8965 20.3223 60.1748 20.7031 60.3623 21.1309C60.5557 21.5586 60.6523 22.042 60.6523 22.5811C60.6523 23.1553 60.541 23.665 60.3184 24.1104C60.0957 24.5557 59.7764 24.9336 59.3604 25.2441C58.9443 25.5488 58.4463 25.7803 57.8662 25.9385C57.2861 26.0967 56.6387 26.1758 55.9238 26.1758C55.2676 26.1758 54.6201 26.0938 53.9814 25.9297C53.3486 25.7598 52.7744 25.502 52.2588 25.1562C51.7432 24.8047 51.3301 24.3564 51.0195 23.8115C50.7148 23.2607 50.5625 22.6074 50.5625 21.8516H53.6562C53.6562 22.2266 53.7061 22.543 53.8057 22.8008C53.9053 23.0586 54.0518 23.2666 54.2451 23.4248C54.4385 23.5771 54.6758 23.6885 54.957 23.7588C55.2383 23.8232 55.5605 23.8555 55.9238 23.8555C56.3164 23.8555 56.6328 23.7998 56.873 23.6885C57.1133 23.5713 57.2891 23.4189 57.4004 23.2314C57.5117 23.0381 57.5674 22.8271 57.5674 22.5986ZM61.7334 21.3418V21.1572C61.7334 20.46 61.833 19.8184 62.0322 19.2324C62.2314 18.6406 62.5244 18.1279 62.9111 17.6943C63.2979 17.2607 63.7754 16.9238 64.3438 16.6836C64.9121 16.4375 65.5684 16.3145 66.3125 16.3145C67.0625 16.3145 67.7217 16.4375 68.29 16.6836C68.8643 16.9238 69.3447 17.2607 69.7314 17.6943C70.1182 18.1279 70.4111 18.6406 70.6104 19.2324C70.8096 19.8184 70.9092 20.46 70.9092 21.1572V21.3418C70.9092 22.0332 70.8096 22.6748 70.6104 23.2666C70.4111 23.8525 70.1182 24.3652 69.7314 24.8047C69.3447 25.2383 68.8672 25.5752 68.2988 25.8154C67.7305 26.0557 67.0742 26.1758 66.3301 26.1758C65.5859 26.1758 64.9268 26.0557 64.3525 25.8154C63.7783 25.5752 63.2979 25.2383 62.9111 24.8047C62.5244 24.3652 62.2314 23.8525 62.0322 23.2666C61.833 22.6748 61.7334 22.0332 61.7334 21.3418ZM64.6953 21.1572V21.3418C64.6953 21.6992 64.7217 22.0332 64.7744 22.3438C64.8271 22.6543 64.915 22.9268 65.0381 23.1611C65.1611 23.3896 65.3281 23.5684 65.5391 23.6973C65.75 23.8262 66.0137 23.8906 66.3301 23.8906C66.6406 23.8906 66.8984 23.8262 67.1035 23.6973C67.3145 23.5684 67.4814 23.3896 67.6045 23.1611C67.7275 22.9268 67.8154 22.6543 67.8682 22.3438C67.9209 22.0332 67.9473 21.6992 67.9473 21.3418V21.1572C67.9473 20.8115 67.9209 20.4863 67.8682 20.1816C67.8154 19.8711 67.7275 19.5986 67.6045 19.3643C67.4814 19.124 67.3145 18.9365 67.1035 18.8018C66.8926 18.667 66.6289 18.5996 66.3125 18.5996C66.002 18.5996 65.7412 18.667 65.5303 18.8018C65.3252 18.9365 65.1611 19.124 65.0381 19.3643C64.915 19.5986 64.8271 19.8711 64.7744 20.1816C64.7217 20.4863 64.6953 20.8115 64.6953 21.1572ZM76.2441 23.8906C76.5195 23.8906 76.7539 23.8408 76.9473 23.7412C77.1465 23.6357 77.2959 23.4893 77.3955 23.3018C77.501 23.1084 77.5508 22.877 77.5449 22.6074H80.3311C80.3369 23.3223 80.1611 23.9492 79.8037 24.4883C79.4521 25.0215 78.9717 25.4375 78.3623 25.7363C77.7588 26.0293 77.0762 26.1758 76.3145 26.1758C75.5703 26.1758 74.9199 26.0557 74.3633 25.8154C73.8066 25.5693 73.3408 25.2295 72.9658 24.7959C72.5967 24.3564 72.3184 23.8438 72.1309 23.2578C71.9492 22.6719 71.8584 22.0361 71.8584 21.3506V21.1484C71.8584 20.4629 71.9492 19.8271 72.1309 19.2412C72.3184 18.6494 72.5967 18.1367 72.9658 17.7031C73.3408 17.2637 73.8037 16.9238 74.3545 16.6836C74.9111 16.4375 75.5586 16.3145 76.2969 16.3145C77.0879 16.3145 77.7852 16.4639 78.3887 16.7627C78.998 17.0615 79.4756 17.4951 79.8213 18.0635C80.167 18.6318 80.3369 19.3203 80.3311 20.1289H77.5449C77.5508 19.8418 77.5068 19.584 77.4131 19.3555C77.3193 19.127 77.1729 18.9453 76.9736 18.8105C76.7803 18.6699 76.5312 18.5996 76.2266 18.5996C75.9219 18.5996 75.6758 18.667 75.4883 18.8018C75.3008 18.9365 75.1572 19.124 75.0576 19.3643C74.9639 19.5986 74.8994 19.8682 74.8643 20.1729C74.835 20.4775 74.8203 20.8027 74.8203 21.1484V21.3506C74.8203 21.7021 74.835 22.0332 74.8643 22.3438C74.8994 22.6484 74.9668 22.918 75.0664 23.1523C75.166 23.3809 75.3096 23.5625 75.4971 23.6973C75.6846 23.8262 75.9336 23.8906 76.2441 23.8906ZM84.7256 16.4902V26H81.7549V16.4902H84.7256ZM81.5791 14.0381C81.5791 13.6162 81.7314 13.2705 82.0361 13.001C82.3408 12.7314 82.7363 12.5967 83.2227 12.5967C83.709 12.5967 84.1045 12.7314 84.4092 13.001C84.7139 13.2705 84.8662 13.6162 84.8662 14.0381C84.8662 14.46 84.7139 14.8057 84.4092 15.0752C84.1045 15.3447 83.709 15.4795 83.2227 15.4795C82.7363 15.4795 82.3408 15.3447 82.0361 15.0752C81.7314 14.8057 81.5791 14.46 81.5791 14.0381ZM91.4932 23.6094V19.6895C91.4932 19.4199 91.4551 19.1885 91.3789 18.9951C91.3027 18.8018 91.1826 18.6523 91.0186 18.5469C90.8545 18.4355 90.6348 18.3799 90.3594 18.3799C90.1367 18.3799 89.9463 18.418 89.7881 18.4941C89.6299 18.5703 89.5098 18.6846 89.4277 18.8369C89.3457 18.9893 89.3047 19.1826 89.3047 19.417H86.3428C86.3428 18.9775 86.4395 18.5703 86.6328 18.1953C86.832 17.8145 87.1133 17.4834 87.4766 17.2021C87.8457 16.9209 88.2852 16.7041 88.7949 16.5518C89.3105 16.3936 89.8848 16.3145 90.5176 16.3145C91.2734 16.3145 91.9473 16.4404 92.5391 16.6924C93.1367 16.9443 93.6084 17.3223 93.9541 17.8262C94.2998 18.3242 94.4727 18.9512 94.4727 19.707V23.6006C94.4727 24.2217 94.5078 24.6934 94.5781 25.0156C94.6484 25.332 94.748 25.6104 94.877 25.8506V26H91.9062C91.7656 25.707 91.6602 25.3496 91.5898 24.9277C91.5254 24.5 91.4932 24.0605 91.4932 23.6094ZM91.8535 20.1904L91.8711 21.7725H90.5615C90.2861 21.7725 90.0518 21.8105 89.8584 21.8867C89.6709 21.9629 89.5186 22.0684 89.4014 22.2031C89.29 22.332 89.208 22.4785 89.1553 22.6426C89.1084 22.8066 89.085 22.9795 89.085 23.1611C89.085 23.3369 89.126 23.4951 89.208 23.6357C89.2959 23.7705 89.4131 23.876 89.5596 23.9521C89.7061 24.0283 89.8701 24.0664 90.0518 24.0664C90.3799 24.0664 90.6582 24.0049 90.8867 23.8818C91.1211 23.7529 91.2998 23.5977 91.4229 23.416C91.5459 23.2344 91.6074 23.0645 91.6074 22.9062L92.2578 24.1191C92.1406 24.3535 92.0059 24.5908 91.8535 24.8311C91.707 25.0713 91.5225 25.2939 91.2998 25.499C91.083 25.6982 90.8164 25.8623 90.5 25.9912C90.1836 26.1143 89.7998 26.1758 89.3486 26.1758C88.7627 26.1758 88.2236 26.0557 87.7314 25.8154C87.2451 25.5752 86.8555 25.2412 86.5625 24.8135C86.2695 24.3799 86.123 23.8818 86.123 23.3193C86.123 22.8271 86.2109 22.3877 86.3867 22.001C86.5684 21.6143 86.8408 21.2861 87.2041 21.0166C87.5674 20.7471 88.0303 20.542 88.5928 20.4014C89.1553 20.2607 89.8174 20.1904 90.5791 20.1904H91.8535ZM99.2451 12.5V26H96.2744V12.5H99.2451ZM109.836 18.2832V20.6562H103.271V18.2832H109.836ZM104.299 13.2031V26H101.214V13.2031H104.299ZM111.91 13.2031V26H108.834V13.2031H111.91ZM119.284 23.6885V16.4902H122.255V26H119.478L119.284 23.6885ZM119.565 21.7549L120.339 21.7373C120.339 22.376 120.263 22.9678 120.11 23.5127C119.958 24.0518 119.732 24.5205 119.434 24.9189C119.141 25.3174 118.777 25.6279 118.344 25.8506C117.916 26.0674 117.421 26.1758 116.858 26.1758C116.39 26.1758 115.959 26.1113 115.566 25.9824C115.18 25.8477 114.846 25.6396 114.564 25.3584C114.283 25.0713 114.063 24.7051 113.905 24.2598C113.753 23.8086 113.677 23.2695 113.677 22.6426V16.4902H116.639V22.6602C116.639 22.8711 116.665 23.0527 116.718 23.2051C116.771 23.3574 116.847 23.4863 116.946 23.5918C117.046 23.6914 117.169 23.7676 117.315 23.8203C117.468 23.8672 117.641 23.8906 117.834 23.8906C118.279 23.8906 118.628 23.7969 118.88 23.6094C119.132 23.4219 119.308 23.167 119.407 22.8447C119.513 22.5225 119.565 22.1592 119.565 21.7549ZM123.916 12.5H126.878V23.6621L126.57 26H123.916V12.5ZM132.714 21.1396V21.3242C132.714 22.0449 132.641 22.7012 132.494 23.293C132.348 23.8848 132.122 24.3975 131.817 24.8311C131.513 25.2588 131.129 25.5898 130.666 25.8242C130.203 26.0586 129.655 26.1758 129.022 26.1758C128.448 26.1758 127.956 26.0527 127.546 25.8066C127.136 25.5547 126.793 25.209 126.518 24.7695C126.242 24.3242 126.02 23.8115 125.85 23.2314C125.68 22.6455 125.545 22.0186 125.445 21.3506V21.1309C125.545 20.4688 125.68 19.8477 125.85 19.2676C126.02 18.6816 126.242 18.1689 126.518 17.7295C126.793 17.2842 127.133 16.9385 127.537 16.6924C127.947 16.4404 128.437 16.3145 129.005 16.3145C129.644 16.3145 130.194 16.4346 130.657 16.6748C131.126 16.915 131.513 17.252 131.817 17.6855C132.122 18.1191 132.348 18.6289 132.494 19.2148C132.641 19.8008 132.714 20.4424 132.714 21.1396ZM129.752 21.3242V21.1396C129.752 20.7939 129.731 20.4688 129.69 20.1641C129.649 19.8594 129.576 19.5898 129.471 19.3555C129.365 19.1211 129.216 18.9365 129.022 18.8018C128.829 18.667 128.577 18.5996 128.267 18.5996C127.95 18.5996 127.684 18.6523 127.467 18.7578C127.256 18.8633 127.086 19.0156 126.957 19.2148C126.834 19.4082 126.746 19.6484 126.693 19.9355C126.641 20.2168 126.617 20.5361 126.623 20.8936V21.5879C126.611 22.0742 126.655 22.4902 126.755 22.8359C126.854 23.1816 127.027 23.4453 127.273 23.627C127.52 23.8086 127.856 23.8994 128.284 23.8994C128.601 23.8994 128.855 23.8379 129.049 23.7148C129.248 23.5918 129.397 23.416 129.497 23.1875C129.597 22.959 129.664 22.6865 129.699 22.3701C129.734 22.0537 129.752 21.7051 129.752 21.3242Z" fill="black"/>
<rect width="40" height="40" rx="6.66667" fill="black"/>
<path d="M19.6586 11.5042V12.621C19.6586 13.5821 19.4787 13.7379 18.8582 14.0757L13.0767 17.0108V17.1407L18.8319 20.024C19.4787 20.3615 19.6586 20.4916 19.6586 21.4787V22.7253C19.6586 23.5044 19.3999 23.7643 18.7288 23.4008L10.0304 18.6211C9.51485 18.3355 9.33301 18.1276 9.33301 17.5305V16.6992C9.33301 16.1017 9.51485 15.8679 10.0304 15.5823L18.7288 10.8287C19.3999 10.4652 19.6586 10.7248 19.6586 11.5042Z" fill="white"/>
<path d="M20.5773 15.6117L29.2495 20.3651C29.7913 20.6508 29.9731 20.8586 29.9731 21.4559V22.2872C29.9731 22.9106 29.7913 23.1183 29.2495 23.404L20.5773 28.1575C19.8799 28.5212 19.6475 28.2615 19.6475 27.4822V26.3653C19.6475 25.4043 19.8274 25.2483 20.4479 24.9367L26.2294 22.0015V21.8457L20.4742 18.9624C19.8274 18.6508 19.6475 18.4948 19.6475 17.5077V16.2609C19.6475 15.4815 19.8799 15.2221 20.5773 15.6117Z" fill="white"/>
</svg>
