<svg width="322" height="301" viewBox="0 0 322 301" fill="none" xmlns="http://www.w3.org/2000/svg">
<rect width="322" height="301" fill="white"/>
<path d="M88.1016 131.875V166H79.8984L67.8281 144.766V166H59.6016V131.875H67.8281L79.8984 153.109V131.875H88.1016ZM91.9453 153.578V153.086C91.9453 151.227 92.2109 149.516 92.7422 147.953C93.2734 146.375 94.0547 145.008 95.0859 143.852C96.1172 142.695 97.3906 141.797 98.9062 141.156C100.422 140.5 102.172 140.172 104.156 140.172C106.156 140.172 107.914 140.5 109.43 141.156C110.961 141.797 112.242 142.695 113.273 143.852C114.305 145.008 115.086 146.375 115.617 147.953C116.148 149.516 116.414 151.227 116.414 153.086V153.578C116.414 155.422 116.148 157.133 115.617 158.711C115.086 160.273 114.305 161.641 113.273 162.812C112.242 163.969 110.969 164.867 109.453 165.508C107.938 166.148 106.188 166.469 104.203 166.469C102.219 166.469 100.461 166.148 98.9297 165.508C97.3984 164.867 96.1172 163.969 95.0859 162.812C94.0547 161.641 93.2734 160.273 92.7422 158.711C92.2109 157.133 91.9453 155.422 91.9453 153.578ZM99.8438 153.086V153.578C99.8438 154.531 99.9141 155.422 100.055 156.25C100.195 157.078 100.43 157.805 100.758 158.43C101.086 159.039 101.531 159.516 102.094 159.859C102.656 160.203 103.359 160.375 104.203 160.375C105.031 160.375 105.719 160.203 106.266 159.859C106.828 159.516 107.273 159.039 107.602 158.43C107.93 157.805 108.164 157.078 108.305 156.25C108.445 155.422 108.516 154.531 108.516 153.578V153.086C108.516 152.164 108.445 151.297 108.305 150.484C108.164 149.656 107.93 148.93 107.602 148.305C107.273 147.664 106.828 147.164 106.266 146.805C105.703 146.445 105 146.266 104.156 146.266C103.328 146.266 102.633 146.445 102.07 146.805C101.523 147.164 101.086 147.664 100.758 148.305C100.43 148.93 100.195 149.656 100.055 150.484C99.9141 151.297 99.8438 152.164 99.8438 153.086ZM141 131.875V166H132.797V131.875H141ZM154.383 146.008V166H146.484V140.641H153.891L154.383 146.008ZM153.422 152.453L151.617 152.5C151.617 150.719 151.828 149.078 152.25 147.578C152.672 146.078 153.297 144.773 154.125 143.664C154.953 142.555 155.969 141.695 157.172 141.086C158.391 140.477 159.797 140.172 161.391 140.172C162.5 140.172 163.508 140.344 164.414 140.688C165.32 141.016 166.102 141.539 166.758 142.258C167.414 142.961 167.914 143.883 168.258 145.023C168.617 146.148 168.797 147.5 168.797 149.078V166H160.898V150.086C160.898 149.008 160.773 148.195 160.523 147.648C160.289 147.102 159.945 146.734 159.492 146.547C159.039 146.359 158.484 146.266 157.828 146.266C157.141 146.266 156.523 146.422 155.977 146.734C155.43 147.047 154.961 147.484 154.57 148.047C154.195 148.594 153.906 149.242 153.703 149.992C153.516 150.742 153.422 151.562 153.422 152.453ZM167.906 152.453L165.703 152.5C165.703 150.719 165.898 149.078 166.289 147.578C166.695 146.078 167.297 144.773 168.094 143.664C168.906 142.555 169.914 141.695 171.117 141.086C172.32 140.477 173.719 140.172 175.312 140.172C176.469 140.172 177.531 140.344 178.5 140.688C179.469 141.031 180.305 141.586 181.008 142.352C181.711 143.117 182.258 144.133 182.648 145.398C183.039 146.648 183.234 148.195 183.234 150.039V166H175.312V150.039C175.312 148.992 175.188 148.203 174.938 147.672C174.703 147.125 174.359 146.758 173.906 146.57C173.453 146.367 172.914 146.266 172.289 146.266C171.539 146.266 170.891 146.422 170.344 146.734C169.797 147.047 169.336 147.484 168.961 148.047C168.602 148.594 168.336 149.242 168.164 149.992C167.992 150.742 167.906 151.562 167.906 152.453ZM200.93 159.625V149.172C200.93 148.453 200.828 147.836 200.625 147.32C200.422 146.805 200.102 146.406 199.664 146.125C199.227 145.828 198.641 145.68 197.906 145.68C197.312 145.68 196.805 145.781 196.383 145.984C195.961 146.188 195.641 146.492 195.422 146.898C195.203 147.305 195.094 147.82 195.094 148.445H187.195C187.195 147.273 187.453 146.188 187.969 145.188C188.5 144.172 189.25 143.289 190.219 142.539C191.203 141.789 192.375 141.211 193.734 140.805C195.109 140.383 196.641 140.172 198.328 140.172C200.344 140.172 202.141 140.508 203.719 141.18C205.312 141.852 206.57 142.859 207.492 144.203C208.414 145.531 208.875 147.203 208.875 149.219V159.602C208.875 161.258 208.969 162.516 209.156 163.375C209.344 164.219 209.609 164.961 209.953 165.602V166H202.031C201.656 165.219 201.375 164.266 201.188 163.141C201.016 162 200.93 160.828 200.93 159.625ZM201.891 150.508L201.938 154.727H198.445C197.711 154.727 197.086 154.828 196.57 155.031C196.07 155.234 195.664 155.516 195.352 155.875C195.055 156.219 194.836 156.609 194.695 157.047C194.57 157.484 194.508 157.945 194.508 158.43C194.508 158.898 194.617 159.32 194.836 159.695C195.07 160.055 195.383 160.336 195.773 160.539C196.164 160.742 196.602 160.844 197.086 160.844C197.961 160.844 198.703 160.68 199.312 160.352C199.938 160.008 200.414 159.594 200.742 159.109C201.07 158.625 201.234 158.172 201.234 157.75L202.969 160.984C202.656 161.609 202.297 162.242 201.891 162.883C201.5 163.523 201.008 164.117 200.414 164.664C199.836 165.195 199.125 165.633 198.281 165.977C197.438 166.305 196.414 166.469 195.211 166.469C193.648 166.469 192.211 166.148 190.898 165.508C189.602 164.867 188.562 163.977 187.781 162.836C187 161.68 186.609 160.352 186.609 158.852C186.609 157.539 186.844 156.367 187.312 155.336C187.797 154.305 188.523 153.43 189.492 152.711C190.461 151.992 191.695 151.445 193.195 151.07C194.695 150.695 196.461 150.508 198.492 150.508H201.891ZM229.195 140.641H236.367V165.016C236.367 167.359 235.828 169.344 234.75 170.969C233.672 172.609 232.164 173.852 230.227 174.695C228.305 175.555 226.055 175.984 223.477 175.984C222.336 175.984 221.172 175.836 219.984 175.539C218.797 175.258 217.688 174.836 216.656 174.273C215.625 173.711 214.758 173.016 214.055 172.188L217.359 167.547C218 168.266 218.805 168.875 219.773 169.375C220.742 169.891 221.883 170.148 223.195 170.148C224.336 170.148 225.289 169.945 226.055 169.539C226.836 169.133 227.43 168.539 227.836 167.758C228.242 166.992 228.445 166.062 228.445 164.969V146.641L229.195 140.641ZM212.344 153.625V153.133C212.344 151.211 212.578 149.461 213.047 147.883C213.531 146.289 214.219 144.922 215.109 143.781C216.016 142.625 217.109 141.734 218.391 141.109C219.672 140.484 221.117 140.172 222.727 140.172C224.461 140.172 225.883 140.508 226.992 141.18C228.117 141.836 229.016 142.758 229.688 143.945C230.375 145.133 230.906 146.523 231.281 148.117C231.672 149.695 232 151.398 232.266 153.227V153.812C232 155.531 231.633 157.156 231.164 158.688C230.711 160.203 230.117 161.547 229.383 162.719C228.648 163.891 227.727 164.812 226.617 165.484C225.523 166.141 224.211 166.469 222.68 166.469C221.086 166.469 219.648 166.148 218.367 165.508C217.102 164.867 216.016 163.969 215.109 162.812C214.219 161.656 213.531 160.297 213.047 158.734C212.578 157.172 212.344 155.469 212.344 153.625ZM220.242 153.133V153.625C220.242 154.578 220.328 155.461 220.5 156.273C220.688 157.086 220.969 157.805 221.344 158.43C221.719 159.039 222.18 159.516 222.727 159.859C223.289 160.203 223.945 160.375 224.695 160.375C225.836 160.375 226.758 160.133 227.461 159.648C228.164 159.164 228.672 158.477 228.984 157.586C229.297 156.695 229.43 155.648 229.383 154.445V152.594C229.414 151.562 229.344 150.656 229.172 149.875C229 149.078 228.727 148.414 228.352 147.883C227.992 147.352 227.508 146.953 226.898 146.688C226.305 146.406 225.586 146.266 224.742 146.266C224.008 146.266 223.359 146.438 222.797 146.781C222.234 147.125 221.766 147.609 221.391 148.234C221.016 148.844 220.727 149.57 220.523 150.414C220.336 151.242 220.242 152.148 220.242 153.133ZM253.195 166.469C251.133 166.469 249.289 166.148 247.664 165.508C246.039 164.852 244.664 163.953 243.539 162.812C242.43 161.672 241.578 160.359 240.984 158.875C240.406 157.391 240.117 155.82 240.117 154.164V153.273C240.117 151.414 240.375 149.695 240.891 148.117C241.406 146.523 242.172 145.133 243.188 143.945C244.203 142.758 245.477 141.836 247.008 141.18C248.539 140.508 250.32 140.172 252.352 140.172C254.148 140.172 255.758 140.461 257.18 141.039C258.602 141.617 259.805 142.445 260.789 143.523C261.789 144.602 262.547 145.906 263.062 147.438C263.594 148.969 263.859 150.688 263.859 152.594V155.805H243.141V150.859H256.148V150.25C256.164 149.406 256.016 148.688 255.703 148.094C255.406 147.5 254.969 147.047 254.391 146.734C253.812 146.422 253.109 146.266 252.281 146.266C251.422 146.266 250.711 146.453 250.148 146.828C249.602 147.203 249.172 147.719 248.859 148.375C248.562 149.016 248.352 149.758 248.227 150.602C248.102 151.445 248.039 152.336 248.039 153.273V154.164C248.039 155.102 248.164 155.953 248.414 156.719C248.68 157.484 249.055 158.141 249.539 158.688C250.039 159.219 250.633 159.633 251.32 159.93C252.023 160.227 252.82 160.375 253.711 160.375C254.789 160.375 255.852 160.172 256.898 159.766C257.945 159.359 258.844 158.688 259.594 157.75L263.18 162.016C262.664 162.75 261.93 163.461 260.977 164.148C260.039 164.836 258.914 165.398 257.602 165.836C256.289 166.258 254.82 166.469 253.195 166.469Z" fill="#9CA0AC"/>
</svg>
